<svg width="32" height="14" viewBox="0 0 32 14" fill="none" xmlns="http://www.w3.org/2000/svg">
<g clip-path="url(#clip0_2701_192)">
<path d="M8.78606 0H5.47026C4.0051 0.0692728 2.8075 0.659379 2.4617 1.87627C2.28139 2.5109 2.18216 3.2079 2.04116 3.86577C1.32438 7.21084 0.688805 10.6481 0.00317383 13.9264H25.818C27.8137 13.9264 29.1841 13.5047 29.5543 11.9206C29.7263 11.1848 29.8911 10.3515 30.0557 9.54306C30.6974 6.39106 31.3395 3.23924 31.9968 0H8.78606Z" fill="#9E9E9E"/>
<path d="M8.52726 4.94941C8.66593 4.85389 8.84455 4.41885 8.6405 4.23772C8.57587 4.18038 8.46778 4.16374 8.31699 4.18924C8.17713 4.21285 8.09668 4.26039 8.04204 4.33481C7.95424 4.45446 7.87366 4.81539 8.00969 4.94948C8.14221 5.07998 8.43902 5.01015 8.52726 4.94941V4.94941ZM6.55396 4.23772C6.4546 4.8824 6.34269 5.51452 6.23046 6.14633C5.50991 6.15393 4.77422 6.18188 4.07923 6.13013C4.21049 5.51201 4.30464 4.85672 4.43508 4.23772H3.6587C3.38079 5.81448 3.12794 7.41642 2.81763 8.96077H3.61021C3.7345 8.16862 3.85081 7.36831 4.01454 6.61541C4.69032 6.59877 5.50023 6.56976 6.14963 6.63162C6.01573 7.41434 5.85395 8.169 5.72909 8.96077H6.52168C6.77641 7.36071 7.04465 5.77434 7.36281 4.23772H6.55396V4.23772ZM17.763 5.59642C17.1463 5.34734 16.6615 5.76825 16.4367 6.16254C16.4877 5.98712 16.5087 5.78169 16.55 5.59642H15.9354C15.7851 6.76175 15.5636 7.85579 15.3531 8.96077H16.0487C16.1461 8.3049 16.1882 7.42075 16.4044 6.79334C16.5773 6.29197 17.0296 5.86484 17.6823 6.09785C17.6913 5.91289 17.7442 5.77171 17.763 5.59642V5.59642ZM18.1511 8.16824C18.087 8.00257 18.0705 7.72912 18.0865 7.52117C18.1224 7.05385 18.2928 6.48485 18.5556 6.22722C18.9183 5.87169 19.6343 5.93054 20.2055 6.13019C20.2231 5.9377 20.2618 5.76599 20.2864 5.58028C19.3497 5.42729 18.4609 5.5225 17.9896 6.01702C17.5282 6.50111 17.2259 7.61375 17.4396 8.31382C17.6898 9.13304 18.8118 9.17756 19.7202 8.8638C19.7604 8.69912 19.7817 8.51555 19.8173 8.34623C19.3208 8.60404 18.3718 8.73806 18.1511 8.16824V8.16824ZM25.9636 5.61256C25.3489 5.3052 24.8371 5.82094 24.6373 6.13013C24.6942 5.97149 24.6975 5.75902 24.7505 5.59636H24.1359C23.9701 6.75157 23.7704 7.87275 23.5375 8.9607H24.2492C24.2536 8.51479 24.3412 8.18495 24.4108 7.74771C24.5595 6.81394 24.778 5.78998 25.8667 6.09778C25.9027 5.9399 25.9177 5.76078 25.9636 5.61256ZM7.81557 5.59642C7.79672 5.59912 7.79798 5.62198 7.79936 5.64491C7.64612 6.79101 7.43868 7.88305 7.21711 8.9607H7.9126C8.07972 7.80687 8.27114 6.67746 8.51106 5.59636L7.81557 5.59642V5.59642ZM13.9296 5.53173C13.427 5.57048 13.0022 5.71506 12.7003 6.03316C12.33 6.42323 12.0302 7.28572 12.1181 8.07121C12.2434 9.19176 13.6386 9.1515 14.7545 8.87994C14.7736 8.68323 14.8212 8.51511 14.8516 8.32996C14.3919 8.50198 13.5937 8.74208 13.1208 8.44326C12.7638 8.21748 12.7618 7.64603 12.8782 7.14925C13.6282 7.12538 14.4077 7.1299 15.1588 7.14925C15.2064 6.79717 15.3427 6.41331 15.2235 6.06557C15.0662 5.60647 14.5029 5.48752 13.9296 5.53173ZM14.5927 6.76099H12.959C13.0108 6.38543 13.3487 5.97262 13.881 5.95227C14.3821 5.93311 14.7408 6.13622 14.5927 6.76099V6.76099ZM11.2931 5.59642C10.7045 5.37529 9.98708 5.63925 9.67601 5.89034C9.67714 5.9014 9.6686 5.9029 9.65943 5.90372C9.6647 5.89926 9.67048 5.8948 9.67601 5.89034C9.67595 5.88942 9.67585 5.88849 9.67569 5.88758C9.68091 5.77962 9.7189 5.70438 9.72418 5.59642H9.12572C8.87632 7.25564 8.58058 8.86844 8.26851 10.465H8.964C9.06467 9.84322 9.13112 9.18724 9.27136 8.60492C9.43019 9.21738 10.4673 9.10038 10.905 8.86373C11.808 8.37537 12.5044 6.05137 11.2931 5.59642V5.59642ZM10.7432 8.32996C10.3711 8.72406 9.45632 8.71815 9.38453 8.05494C9.35332 7.76642 9.46078 7.4639 9.51404 7.16539C9.56773 6.86324 9.60648 6.57334 9.65949 6.30811C10.026 5.86057 11.103 5.8065 11.2123 6.55073C11.3071 7.19685 11.0514 8.00357 10.7432 8.32996V8.32996ZM28.5515 4.14069C28.4919 4.66334 28.4122 5.16596 28.3089 5.64491C26.6029 5.10485 25.5566 6.36012 25.5755 7.90943C25.5792 8.20906 25.6307 8.50619 25.818 8.71815C26.1411 9.0833 27.0657 9.17078 27.5326 8.86367C27.6229 8.80426 27.7153 8.69611 27.7752 8.62112C27.8202 8.56466 27.8916 8.41676 27.9046 8.45934C27.88 8.62345 27.8433 8.77556 27.84 8.9607H28.4708C28.5924 7.21676 28.9683 5.72724 29.2472 4.14062H28.5515V4.14069H28.5515ZM26.9988 8.58871C26.5306 8.59876 26.2978 8.30899 26.287 7.82854C26.2684 6.98709 26.6375 6.05225 27.387 5.96841C27.7359 5.92941 27.9886 6.01055 28.2442 6.09785C28.0095 7.04305 28.0942 8.56523 26.9988 8.58871V8.58871ZM20.9979 5.59642C20.9637 5.7886 20.9111 5.9625 20.8686 6.14633C21.279 6.0434 22.557 5.72787 22.6801 6.27571C22.721 6.45771 22.6505 6.65109 22.5992 6.79334C21.4436 6.68387 20.5017 6.87586 20.2539 7.6991C20.088 8.25051 20.2725 8.79314 20.6259 8.94462C21.3067 9.23629 22.1347 8.90217 22.4213 8.44326C22.3915 8.60209 22.3633 8.76268 22.3729 8.96077H22.9713C22.9777 8.38762 23.0611 7.92368 23.1492 7.40794C23.2243 6.96875 23.3657 6.53396 23.3433 6.14633C23.2918 5.2586 21.8212 5.57262 20.9979 5.59642V5.59642ZM22.1302 8.31376C21.7717 8.66464 20.7656 8.76431 20.8686 7.92557C20.954 7.22895 21.7125 7.08092 22.5344 7.18147C22.4734 7.56256 22.4033 8.0464 22.1302 8.31376V8.31376Z" fill="white"/>
</g>
<defs>
<clipPath id="clip0_2701_192">
<rect width="32" height="13.9264" fill="white"/>
</clipPath>
</defs>
</svg>
